<svg width="30" height="30" viewBox="0 0 30 30" fill="none" xmlns="http://www.w3.org/2000/svg">
<rect x="0.5" y="0.5" width="29" height="29" rx="3.5" stroke="black" stroke-opacity="0.1"/>
<g clip-path="url(#clip0_1080_23210)">
<path d="M27 15.2662C27.0145 14.4413 26.9276 13.6176 26.7412 12.813H15.2449V17.2662H21.9931C21.8653 18.0471 21.5776 18.7945 21.1474 19.4636C20.7172 20.1326 20.1533 20.7095 19.4898 21.1595L19.4662 21.3087L23.1014 24.0683L23.3531 24.093C25.6659 21.9996 26.9995 18.9195 26.9995 15.2662" fill="#4285F4"/>
<path d="M15.2449 26.9998C18.5509 26.9998 21.3264 25.933 23.3538 24.093L19.4898 21.1596C18.4559 21.8664 17.0681 22.3598 15.2449 22.3598C13.6965 22.3509 12.1902 21.8644 10.9398 20.9693C9.68944 20.0742 8.75842 18.8159 8.27886 17.373L8.13536 17.385L4.35556 20.2517L4.30615 20.3863C5.32415 22.3746 6.88643 24.0461 8.8183 25.2141C10.7502 26.382 12.9755 27.0003 15.2454 26.9998" fill="#34A853"/>
<path d="M8.27885 17.373C8.01102 16.6092 7.87282 15.8074 7.86975 14.9998C7.87468 14.1934 8.00778 13.3927 8.26427 12.6265L8.25744 12.4674L4.43129 9.55469L4.30614 9.61302C3.44738 11.2839 3.00006 13.1288 3.00006 14.9996C3.00006 16.8705 3.44738 18.7154 4.30614 20.3863L8.27885 17.373Z" fill="#FBBC05"/>
<path d="M15.2449 7.63986C16.9995 7.61316 18.6964 8.25354 19.9796 9.4266L23.4355 6.11986C21.219 4.08212 18.2838 2.96404 15.2449 2.99986C12.975 2.99933 10.7497 3.61758 8.81786 4.78548C6.88599 5.95339 5.32369 7.6249 4.30566 9.61311L8.2652 12.6266C8.74948 11.184 9.68359 9.92668 10.9358 9.032C12.1881 8.13732 13.6953 7.65039 15.2449 7.63986Z" fill="#EB4335"/>
</g>
<defs>
<clipPath id="clip0_1080_23210">
<rect width="24" height="24" fill="white" transform="translate(3 3)"/>
</clipPath>
</defs>
</svg>
