<svg width="139" height="139" viewBox="0 0 139 139" fill="none" xmlns="http://www.w3.org/2000/svg">
<rect x="1.27659" y="0.75657" width="137.046" height="137.046" rx="68.523" fill="#ECFDF3"/>
<rect x="1.27659" y="0.75657" width="137.046" height="137.046" rx="68.523" stroke="#4CAF50" stroke-width="1.35689"/>
<path d="M15.3234 65.2793V54.7531H21.9229V56.1203H16.9116V59.3275H21.5785V60.6895H16.9116V63.9121H21.9845V65.2793H15.3234ZM26.2184 65.454C25.7181 65.454 25.2658 65.3615 24.8615 65.1765C24.4572 64.988 24.1368 64.7156 23.9004 64.3593C23.6674 64.0029 23.5509 63.5661 23.5509 63.0487C23.5509 62.6032 23.6365 62.2366 23.8079 61.9487C23.9792 61.6609 24.2105 61.4331 24.5017 61.2652C24.793 61.0973 25.1185 60.9705 25.4783 60.8848C25.838 60.7992 26.2047 60.7341 26.5782 60.6895C27.051 60.6347 27.4348 60.5901 27.7295 60.5559C28.0242 60.5182 28.2383 60.4582 28.3719 60.376C28.5056 60.2938 28.5724 60.1601 28.5724 59.9751V59.9391C28.5724 59.4902 28.4456 59.1425 28.192 58.8957C27.9419 58.649 27.5684 58.5257 27.0716 58.5257C26.5542 58.5257 26.1464 58.6405 25.8483 58.87C25.5537 59.0962 25.3498 59.348 25.2367 59.6256L23.7924 59.2966C23.9638 58.8169 24.2139 58.4297 24.5428 58.1351C24.8752 57.837 25.2573 57.6211 25.689 57.4875C26.1207 57.3504 26.5747 57.2819 27.051 57.2819C27.3663 57.2819 27.7003 57.3196 28.0533 57.3949C28.4096 57.4669 28.742 57.6005 29.0504 57.7958C29.3622 57.9911 29.6175 58.2704 29.8162 58.6336C30.0149 58.9934 30.1143 59.4611 30.1143 60.0368V65.2793H28.6135V64.2H28.5518C28.4525 64.3987 28.3034 64.594 28.1047 64.7859C27.9059 64.9778 27.6507 65.1371 27.3389 65.2639C27.027 65.3907 26.6536 65.454 26.2184 65.454ZM26.5525 64.2205C26.9774 64.2205 27.3406 64.1366 27.6421 63.9687C27.9471 63.8008 28.1783 63.5815 28.336 63.3108C28.497 63.0367 28.5775 62.7437 28.5775 62.4319V61.4142C28.5227 61.469 28.4165 61.5204 28.2589 61.5684C28.1047 61.613 27.9282 61.6524 27.7295 61.6866C27.5307 61.7175 27.3371 61.7466 27.1487 61.774C26.9602 61.798 26.8026 61.8185 26.6758 61.8357C26.3777 61.8734 26.1053 61.9368 25.8586 62.0258C25.6153 62.1149 25.42 62.2434 25.2727 62.4113C25.1288 62.5758 25.0568 62.7951 25.0568 63.0692C25.0568 63.4496 25.1973 63.7374 25.4783 63.9327C25.7592 64.1246 26.1173 64.2205 26.5525 64.2205ZM32.1612 65.2793V57.3847H33.6466V58.6388H33.7288C33.8727 58.2139 34.1263 57.8798 34.4895 57.6365C34.8561 57.3898 35.2708 57.2664 35.7333 57.2664C35.8293 57.2664 35.9423 57.2699 36.0726 57.2767C36.2062 57.2836 36.3107 57.2921 36.3861 57.3024V58.7724C36.3244 58.7553 36.2148 58.7364 36.0571 58.7159C35.8995 58.6919 35.7419 58.6799 35.5843 58.6799C35.2211 58.6799 34.8973 58.757 34.6129 58.9112C34.3319 59.0619 34.1092 59.2727 33.9447 59.5434C33.7802 59.8106 33.698 60.1156 33.698 60.4582V65.2793H32.1612ZM39.2528 60.5919V65.2793H37.716V57.3847H39.1911V58.6696H39.2887C39.4703 58.2516 39.7547 57.9158 40.1419 57.6622C40.5326 57.4086 41.0243 57.2819 41.617 57.2819C42.155 57.2819 42.6261 57.3949 43.0305 57.6211C43.4348 57.8438 43.7483 58.1762 43.971 58.6182C44.1938 59.0602 44.3051 59.6067 44.3051 60.2578V65.2793H42.7683V60.4428C42.7683 59.8706 42.6193 59.4234 42.3212 59.1013C42.0231 58.7758 41.6136 58.6131 41.0928 58.6131C40.7364 58.6131 40.4195 58.6902 40.1419 58.8443C39.8678 58.9985 39.6502 59.2247 39.4892 59.5228C39.3316 59.8175 39.2528 60.1738 39.2528 60.5919ZM52.494 65.454C51.9937 65.454 51.5414 65.3615 51.1371 65.1765C50.7328 64.988 50.4124 64.7156 50.176 64.3593C49.943 64.0029 49.8265 63.5661 49.8265 63.0487C49.8265 62.6032 49.9121 62.2366 50.0835 61.9487C50.2548 61.6609 50.4861 61.4331 50.7773 61.2652C51.0686 61.0973 51.3941 60.9705 51.7539 60.8848C52.1137 60.7992 52.4803 60.7341 52.8538 60.6895C53.3266 60.6347 53.7104 60.5901 54.0051 60.5559C54.2998 60.5182 54.5139 60.4582 54.6476 60.376C54.7812 60.2938 54.848 60.1601 54.848 59.9751V59.9391C54.848 59.4902 54.7212 59.1425 54.4677 58.8957C54.2175 58.649 53.844 58.5257 53.3472 58.5257C52.8298 58.5257 52.4221 58.6405 52.1239 58.87C51.8293 59.0962 51.6254 59.348 51.5123 59.6256L50.0681 59.2966C50.2394 58.8169 50.4895 58.4297 50.8185 58.1351C51.1508 57.837 51.5329 57.6211 51.9646 57.4875C52.3964 57.3504 52.8504 57.2819 53.3266 57.2819C53.6419 57.2819 53.976 57.3196 54.3289 57.3949C54.6853 57.4669 55.0176 57.6005 55.326 57.7958C55.6378 57.9911 55.8931 58.2704 56.0918 58.6336C56.2906 58.9934 56.3899 59.4611 56.3899 60.0368V65.2793H54.8891V64.2H54.8274C54.7281 64.3987 54.579 64.594 54.3803 64.7859C54.1816 64.9778 53.9263 65.1371 53.6145 65.2639C53.3027 65.3907 52.9292 65.454 52.494 65.454ZM52.8281 64.2205C53.253 64.2205 53.6162 64.1366 53.9177 63.9687C54.2227 63.8008 54.454 63.5815 54.6116 63.3108C54.7726 63.0367 54.8531 62.7437 54.8531 62.4319V61.4142C54.7983 61.469 54.6921 61.5204 54.5345 61.5684C54.3803 61.613 54.2038 61.6524 54.0051 61.6866C53.8064 61.7175 53.6128 61.7466 53.4243 61.774C53.2358 61.798 53.0782 61.8185 52.9514 61.8357C52.6533 61.8734 52.3809 61.9368 52.1342 62.0258C51.8909 62.1149 51.6956 62.2434 51.5483 62.4113C51.4044 62.5758 51.3324 62.7951 51.3324 63.0692C51.3324 63.4496 51.4729 63.7374 51.7539 63.9327C52.0349 64.1246 52.3929 64.2205 52.8281 64.2205ZM64.9142 65.3924C64.3317 65.3924 63.8023 65.2416 63.326 64.9401C62.8497 64.6385 62.4694 64.1862 62.185 63.5832C61.9006 62.9801 61.7584 62.2314 61.7584 61.3371C61.7584 60.4085 61.9057 59.6444 62.2004 59.0448C62.4951 58.4452 62.8806 58.0014 63.3568 57.7136C63.8366 57.4258 64.3522 57.2819 64.9039 57.2819C65.3185 57.2819 65.6732 57.3538 65.9678 57.4977C66.2625 57.6382 66.5058 57.8198 66.6977 58.0425C66.8896 58.2653 67.0352 58.4966 67.1345 58.7364H67.1859V54.7531H69.6993V65.2793H67.2116V63.9995H67.1345C67.0283 64.2428 66.8776 64.4706 66.6823 64.6831C66.4869 64.8955 66.2419 65.0669 65.9473 65.1971C65.656 65.3273 65.3117 65.3924 64.9142 65.3924ZM65.7879 63.4341C66.0929 63.4341 66.3533 63.3485 66.5692 63.1771C66.785 63.0024 66.9512 62.7574 67.0677 62.4422C67.1842 62.1269 67.2425 61.7569 67.2425 61.332C67.2425 60.9002 67.1842 60.5285 67.0677 60.2167C66.9547 59.9048 66.7885 59.665 66.5692 59.4971C66.3533 59.3292 66.0929 59.2452 65.7879 59.2452C65.4761 59.2452 65.2123 59.3309 64.9964 59.5022C64.7805 59.6736 64.6161 59.9151 64.503 60.2269C64.3934 60.5387 64.3385 60.9071 64.3385 61.332C64.3385 61.7569 64.3951 62.1269 64.5081 62.4422C64.6212 62.7574 64.784 63.0024 64.9964 63.1771C65.2123 63.3485 65.4761 63.4341 65.7879 63.4341ZM71.2887 65.2793V57.3847H73.8021V65.2793H71.2887ZM72.548 56.4646C72.195 56.4646 71.8918 56.3481 71.6382 56.1151C71.3847 55.8787 71.2579 55.5943 71.2579 55.2619C71.2579 54.933 71.3847 54.652 71.6382 54.419C71.8918 54.1826 72.195 54.0644 72.548 54.0644C72.9043 54.0644 73.2076 54.1826 73.4577 54.419C73.7113 54.652 73.838 54.933 73.838 55.2619C73.838 55.5943 73.7113 55.8787 73.4577 56.1151C73.2076 56.3481 72.9043 56.4646 72.548 56.4646ZM82.2942 59.7952L79.9865 59.8569C79.9625 59.6924 79.8974 59.5468 79.7912 59.42C79.6849 59.2898 79.5462 59.1887 79.3748 59.1168C79.2069 59.0414 79.0116 59.0037 78.7889 59.0037C78.4976 59.0037 78.2492 59.0619 78.0436 59.1784C77.8415 59.2949 77.7421 59.4525 77.7455 59.6513C77.7421 59.8055 77.8038 59.9391 77.9306 60.0522C78.0608 60.1653 78.2921 60.2561 78.6244 60.3246L80.1458 60.6124C80.9339 60.7632 81.5198 61.0133 81.9036 61.3628C82.2908 61.7123 82.4861 62.1749 82.4895 62.7505C82.4861 63.2919 82.325 63.7631 82.0064 64.164C81.6911 64.5649 81.2594 64.8767 80.7112 65.0994C80.1629 65.3187 79.5359 65.4283 78.83 65.4283C77.7027 65.4283 76.8135 65.1971 76.1625 64.7345C75.5149 64.2685 75.1448 63.6449 75.0523 62.8636L77.5348 62.8019C77.5896 63.0898 77.7318 63.3091 77.9614 63.4598C78.191 63.6106 78.4839 63.686 78.8403 63.686C79.1624 63.686 79.4245 63.626 79.6267 63.5061C79.8288 63.3862 79.9316 63.2268 79.9351 63.0281C79.9316 62.8499 79.8528 62.7077 79.6986 62.6015C79.5444 62.4918 79.3029 62.4062 78.9739 62.3445L77.5965 62.0824C76.805 61.9385 76.2156 61.6729 75.8284 61.2857C75.4412 60.8951 75.2493 60.3983 75.2528 59.7952C75.2493 59.2675 75.3898 58.8169 75.6742 58.4434C75.9586 58.0665 76.3629 57.7787 76.8872 57.58C77.4115 57.3812 78.0299 57.2819 78.7426 57.2819C79.8117 57.2819 80.6546 57.5063 81.2714 57.9552C81.8882 58.4006 82.2291 59.014 82.2942 59.7952ZM87.4121 65.4283C86.5795 65.4283 85.865 65.257 85.2688 64.9144C84.676 64.5717 84.2203 64.0954 83.9017 63.4855C83.583 62.8722 83.4237 62.1629 83.4237 61.3577C83.4237 60.549 83.583 59.8397 83.9017 59.2298C84.2237 58.6165 84.6812 58.1385 85.274 57.7958C85.8702 57.4532 86.5812 57.2819 87.407 57.2819C88.1368 57.2819 88.7724 57.4138 89.3138 57.6776C89.8586 57.9415 90.2835 58.315 90.5885 58.7981C90.8968 59.2778 91.0596 59.8415 91.0767 60.4891H88.7279C88.6799 60.0847 88.5428 59.7678 88.3167 59.5382C88.094 59.3086 87.8027 59.1938 87.4429 59.1938C87.1517 59.1938 86.8964 59.2761 86.6771 59.4406C86.4578 59.6016 86.2865 59.8415 86.1631 60.1601C86.0432 60.4754 85.9832 60.866 85.9832 61.332C85.9832 61.798 86.0432 62.192 86.1631 62.5141C86.2865 62.8328 86.4578 63.0743 86.6771 63.2388C86.8964 63.3999 87.1517 63.4804 87.4429 63.4804C87.6759 63.4804 87.8815 63.4307 88.0597 63.3313C88.2413 63.232 88.3904 63.0863 88.5069 62.8945C88.6234 62.6991 88.697 62.4627 88.7279 62.1852H91.0767C91.0527 62.8362 90.89 63.405 90.5885 63.8916C90.2903 64.3781 89.8706 64.7568 89.3292 65.0274C88.7913 65.2947 88.1522 65.4283 87.4121 65.4283ZM96.0481 65.4283C95.2189 65.4283 94.5062 65.2587 93.91 64.9195C93.3172 64.5769 92.8598 64.1006 92.5377 63.4907C92.219 62.8773 92.0597 62.1663 92.0597 61.3577C92.0597 60.5456 92.219 59.8346 92.5377 59.2247C92.8598 58.6113 93.3172 58.1351 93.91 57.7958C94.5062 57.4532 95.2189 57.2819 96.0481 57.2819C96.8773 57.2819 97.5883 57.4532 98.1811 57.7958C98.7773 58.1351 99.2348 58.6113 99.5534 59.2247C99.8755 59.8346 100.037 60.5456 100.037 61.3577C100.037 62.1663 99.8755 62.8773 99.5534 63.4907C99.2348 64.1006 98.7773 64.5769 98.1811 64.9195C97.5883 65.2587 96.8773 65.4283 96.0481 65.4283ZM96.0636 63.5318C96.3651 63.5318 96.6204 63.4393 96.8294 63.2542C97.0384 63.0692 97.1977 62.8122 97.3074 62.4833C97.4204 62.1543 97.477 61.774 97.477 61.3423C97.477 60.9037 97.4204 60.5199 97.3074 60.191C97.1977 59.862 97.0384 59.605 96.8294 59.42C96.6204 59.235 96.3651 59.1425 96.0636 59.1425C95.7517 59.1425 95.4879 59.235 95.272 59.42C95.0596 59.605 94.8968 59.862 94.7838 60.191C94.6741 60.5199 94.6193 60.9037 94.6193 61.3423C94.6193 61.774 94.6741 62.1543 94.7838 62.4833C94.8968 62.8122 95.0596 63.0692 95.272 63.2542C95.4879 63.4393 95.7517 63.5318 96.0636 63.5318ZM106.418 61.8717V57.3847H108.926V65.2793H106.531V63.8093H106.448C106.274 64.2925 105.976 64.6762 105.554 64.9606C105.136 65.2416 104.631 65.3821 104.038 65.3821C103.5 65.3821 103.027 65.2587 102.619 65.012C102.212 64.7653 101.895 64.421 101.668 63.9789C101.442 63.5335 101.328 63.0127 101.324 62.4165V57.3847H103.837V61.923C103.841 62.3514 103.954 62.6889 104.177 62.9356C104.399 63.1823 104.703 63.3056 105.086 63.3056C105.337 63.3056 105.561 63.2508 105.76 63.1412C105.962 63.0281 106.121 62.8653 106.238 62.6529C106.358 62.437 106.418 62.1766 106.418 61.8717ZM113.039 60.7769V65.2793H110.525V57.3847H112.915V58.8341H113.003C113.178 58.3509 113.476 57.9723 113.897 57.6982C114.319 57.4206 114.821 57.2819 115.403 57.2819C115.958 57.2819 116.44 57.4069 116.847 57.6571C117.259 57.9038 117.577 58.2498 117.803 58.6953C118.033 59.1373 118.146 59.6547 118.143 60.2475V65.2793H115.629V60.7409C115.633 60.3023 115.521 59.9597 115.295 59.713C115.072 59.4663 114.762 59.3429 114.365 59.3429C114.101 59.3429 113.868 59.4012 113.666 59.5177C113.467 59.6307 113.313 59.7935 113.203 60.0059C113.097 60.2184 113.042 60.4754 113.039 60.7769ZM124.155 57.3847V59.235H119.174V57.3847H124.155ZM120.218 55.4932H122.731V62.7968C122.731 62.951 122.755 63.0761 122.803 63.172C122.854 63.2645 122.928 63.3313 123.024 63.3725C123.12 63.4101 123.235 63.429 123.368 63.429C123.464 63.429 123.565 63.4204 123.672 63.4033C123.781 63.3827 123.864 63.3656 123.918 63.3519L124.299 65.1662C124.179 65.2005 124.009 65.2433 123.79 65.2947C123.574 65.3461 123.315 65.3787 123.014 65.3924C122.424 65.4198 121.919 65.3513 121.498 65.1868C121.08 65.0189 120.759 64.7585 120.536 64.4055C120.317 64.0526 120.211 63.6089 120.218 63.0743V55.4932ZM17.4975 83.454C16.9973 83.454 16.545 83.3615 16.1407 83.1765C15.7363 82.988 15.4159 82.7156 15.1795 82.3593C14.9465 82.0029 14.83 81.5661 14.83 81.0487C14.83 80.6032 14.9157 80.2366 15.087 79.9487C15.2583 79.6609 15.4896 79.4331 15.7809 79.2652C16.0721 79.0973 16.3976 78.9705 16.7574 78.8848C17.1172 78.7992 17.4838 78.7341 17.8573 78.6895C18.3302 78.6347 18.7139 78.5901 19.0086 78.5559C19.3033 78.5182 19.5175 78.4582 19.6511 78.376C19.7847 78.2938 19.8515 78.1601 19.8515 77.9751V77.9391C19.8515 77.4902 19.7248 77.1425 19.4712 76.8957C19.2211 76.649 18.8476 76.5257 18.3507 76.5257C17.8333 76.5257 17.4256 76.6405 17.1275 76.87C16.8328 77.0962 16.6289 77.348 16.5159 77.6256L15.0716 77.2966C15.2429 76.8169 15.493 76.4297 15.822 76.1351C16.1544 75.837 16.5364 75.6211 16.9681 75.4875C17.3999 75.3504 17.8539 75.2819 18.3302 75.2819C18.6454 75.2819 18.9795 75.3196 19.3324 75.3949C19.6888 75.4669 20.0212 75.6005 20.3295 75.7958C20.6413 75.9911 20.8966 76.2704 21.0954 76.6336C21.2941 76.9934 21.3935 77.4611 21.3935 78.0368V83.2793H19.8927V82.2H19.831C19.7316 82.3987 19.5826 82.594 19.3838 82.7859C19.1851 82.9778 18.9298 83.1371 18.618 83.2639C18.3062 83.3907 17.9327 83.454 17.4975 83.454ZM17.8316 82.2205C18.2565 82.2205 18.6197 82.1366 18.9212 81.9687C19.2262 81.8008 19.4575 81.5815 19.6151 81.3108C19.7762 81.0367 19.8567 80.7437 19.8567 80.4319V79.4142C19.8019 79.469 19.6956 79.5204 19.538 79.5684C19.3838 79.613 19.2074 79.6524 19.0086 79.6866C18.8099 79.7175 18.6163 79.7466 18.4278 79.774C18.2394 79.798 18.0818 79.8185 17.955 79.8357C17.6569 79.8734 17.3845 79.9368 17.1378 80.0258C16.8945 80.1149 16.6992 80.2434 16.5518 80.4113C16.4079 80.5758 16.336 80.7951 16.336 81.0692C16.336 81.4496 16.4764 81.7374 16.7574 81.9327C17.0384 82.1246 17.3965 82.2205 17.8316 82.2205ZM27.1256 75.3847V76.6182H22.8133V75.3847H27.1256ZM23.9698 73.4932H25.5065V80.9613C25.5065 81.2594 25.5511 81.4838 25.6402 81.6346C25.7293 81.7819 25.844 81.883 25.9845 81.9378C26.1284 81.9892 26.2843 82.0149 26.4522 82.0149C26.5756 82.0149 26.6835 82.0064 26.7761 81.9892C26.8686 81.9721 26.9405 81.9584 26.9919 81.9481L27.2695 83.2176C27.1804 83.2519 27.0536 83.2861 26.8891 83.3204C26.7247 83.3581 26.5191 83.3787 26.2724 83.3821C25.868 83.3889 25.4911 83.317 25.1416 83.1662C24.7921 83.0155 24.5094 82.7825 24.2936 82.4672C24.0777 82.152 23.9698 81.7562 23.9698 81.2799V73.4932ZM36.0584 83.4386C35.2806 83.4386 34.6107 83.2724 34.0488 82.9401C33.4903 82.6043 33.0585 82.1331 32.7536 81.5266C32.452 80.9167 32.3013 80.2023 32.3013 79.3834C32.3013 78.5747 32.452 77.862 32.7536 77.2452C33.0585 76.6285 33.4834 76.1471 34.0282 75.801C34.5765 75.4549 35.2172 75.2819 35.9505 75.2819C36.3959 75.2819 36.8277 75.3555 37.2457 75.5029C37.6637 75.6502 38.0389 75.8815 38.3713 76.1967C38.7037 76.512 38.9658 76.9214 39.1577 77.4251C39.3496 77.9254 39.4455 78.5336 39.4455 79.2497V79.7946H33.1699V78.6433H37.9396C37.9396 78.2389 37.8573 77.8809 37.6929 77.569C37.5284 77.2538 37.2971 77.0054 36.999 76.8238C36.7043 76.6422 36.3582 76.5514 35.9608 76.5514C35.529 76.5514 35.1521 76.6576 34.83 76.87C34.5114 77.0791 34.2646 77.3532 34.0899 77.6924C33.9186 78.0282 33.8329 78.3931 33.8329 78.7872V79.6866C33.8329 80.2143 33.9254 80.6632 34.1105 81.0332C34.2989 81.4033 34.561 81.686 34.8968 81.8813C35.2326 82.0732 35.625 82.1691 36.0738 82.1691C36.3651 82.1691 36.6306 82.128 36.8705 82.0458C37.1103 81.9601 37.3177 81.8333 37.4924 81.6654C37.6672 81.4975 37.8008 81.2902 37.8933 81.0435L39.3478 81.3056C39.2313 81.7339 39.0223 82.1092 38.7208 82.4312C38.4227 82.7499 38.0475 82.9983 37.5952 83.1765C37.1463 83.3513 36.6341 83.4386 36.0584 83.4386ZM47.6781 75.3847L44.8152 83.2793H43.1705L40.3026 75.3847H41.9524L43.9518 81.4598H44.034L46.0282 75.3847H47.6781ZM52.2563 83.4386C51.4785 83.4386 50.8086 83.2724 50.2467 82.9401C49.6881 82.6043 49.2564 82.1331 48.9514 81.5266C48.6499 80.9167 48.4991 80.2023 48.4991 79.3834C48.4991 78.5747 48.6499 77.862 48.9514 77.2452C49.2564 76.6285 49.6813 76.1471 50.2261 75.801C50.7743 75.4549 51.4151 75.2819 52.1484 75.2819C52.5938 75.2819 53.0255 75.3555 53.4436 75.5029C53.8616 75.6502 54.2368 75.8815 54.5692 76.1967C54.9015 76.512 55.1637 76.9214 55.3556 77.4251C55.5474 77.9254 55.6434 78.5336 55.6434 79.2497V79.7946H49.3678V78.6433H54.1374C54.1374 78.2389 54.0552 77.8809 53.8907 77.569C53.7263 77.2538 53.495 77.0054 53.1969 76.8238C52.9022 76.6422 52.5561 76.5514 52.1586 76.5514C51.7269 76.5514 51.35 76.6576 51.0279 76.87C50.7092 77.0791 50.4625 77.3532 50.2878 77.6924C50.1165 78.0282 50.0308 78.3931 50.0308 78.7872V79.6866C50.0308 80.2143 50.1233 80.6632 50.3083 81.0332C50.4968 81.4033 50.7589 81.686 51.0947 81.8813C51.4305 82.0732 51.8228 82.1691 52.2717 82.1691C52.563 82.1691 52.8285 82.128 53.0684 82.0458C53.3082 81.9601 53.5155 81.8333 53.6903 81.6654C53.865 81.4975 53.9987 81.2902 54.0912 81.0435L55.5457 81.3056C55.4292 81.7339 55.2202 82.1092 54.9187 82.4312C54.6206 82.7499 54.2454 82.9983 53.7931 83.1765C53.3442 83.3513 52.8319 83.4386 52.2563 83.4386ZM57.3485 83.2793V75.3847H58.8339V76.6388H58.9161C59.06 76.2139 59.3136 75.8798 59.6768 75.6365C60.0434 75.3898 60.458 75.2664 60.9206 75.2664C61.0165 75.2664 61.1296 75.2699 61.2598 75.2767C61.3935 75.2836 61.498 75.2921 61.5734 75.3024V76.7724C61.5117 76.7553 61.402 76.7364 61.2444 76.7159C61.0868 76.6919 60.9292 76.6799 60.7716 76.6799C60.4083 76.6799 60.0845 76.757 59.8001 76.9112C59.5192 77.0619 59.2965 77.2727 59.132 77.5434C58.9675 77.8106 58.8853 78.1156 58.8853 78.4582V83.2793H57.3485ZM64.115 86.2398C63.8854 86.2398 63.6764 86.2209 63.4879 86.1832C63.2994 86.149 63.159 86.1113 63.0664 86.0702L63.4365 84.8109C63.7175 84.8863 63.9676 84.9189 64.1869 84.9086C64.4062 84.8983 64.5998 84.8161 64.7677 84.6619C64.939 84.5077 65.0898 84.2558 65.22 83.9063L65.4102 83.3821L62.5216 75.3847H64.1663L66.1657 81.5112H66.2479L68.2473 75.3847H69.8972L66.6437 84.3329C66.4929 84.7441 66.3011 85.0919 66.0681 85.3763C65.8351 85.6641 65.5575 85.88 65.2354 86.0239C64.9133 86.1678 64.5398 86.2398 64.115 86.2398ZM75.1718 83.2793V75.3847H76.6572V76.6388H76.7394C76.8833 76.2139 77.1369 75.8798 77.5001 75.6365C77.8667 75.3898 78.2814 75.2664 78.7439 75.2664C78.8399 75.2664 78.9529 75.2699 79.0832 75.2767C79.2168 75.2836 79.3213 75.2921 79.3967 75.3024V76.7724C79.335 76.7553 79.2254 76.7364 79.0677 76.7159C78.9101 76.6919 78.7525 76.6799 78.5949 76.6799C78.2317 76.6799 77.9079 76.757 77.6235 76.9112C77.3425 77.0619 77.1198 77.2727 76.9553 77.5434C76.7908 77.8106 76.7086 78.1156 76.7086 78.4582V83.2793H75.1718ZM83.8464 83.4386C83.0686 83.4386 82.3987 83.2724 81.8368 82.9401C81.2783 82.6043 80.8465 82.1331 80.5416 81.5266C80.24 80.9167 80.0893 80.2023 80.0893 79.3834C80.0893 78.5747 80.24 77.862 80.5416 77.2452C80.8465 76.6285 81.2714 76.1471 81.8162 75.801C82.3644 75.4549 83.0052 75.2819 83.7385 75.2819C84.1839 75.2819 84.6157 75.3555 85.0337 75.5029C85.4517 75.6502 85.8269 75.8815 86.1593 76.1967C86.4917 76.512 86.7538 76.9214 86.9457 77.4251C87.1376 77.9254 87.2335 78.5336 87.2335 79.2497V79.7946H80.9579V78.6433H85.7275C85.7275 78.2389 85.6453 77.8809 85.4808 77.569C85.3164 77.2538 85.0851 77.0054 84.787 76.8238C84.4923 76.6422 84.1462 76.5514 83.7488 76.5514C83.317 76.5514 82.9401 76.6576 82.618 76.87C82.2993 77.0791 82.0526 77.3532 81.8779 77.6924C81.7066 78.0282 81.6209 78.3931 81.6209 78.7872V79.6866C81.6209 80.2143 81.7134 80.6632 81.8984 81.0332C82.0869 81.4033 82.349 81.686 82.6848 81.8813C83.0206 82.0732 83.413 82.1691 83.8618 82.1691C84.1531 82.1691 84.4186 82.128 84.6585 82.0458C84.8983 81.9601 85.1056 81.8333 85.2804 81.6654C85.4551 81.4975 85.5888 81.2902 85.6813 81.0435L87.1358 81.3056C87.0193 81.7339 86.8103 82.1092 86.5088 82.4312C86.2107 82.7499 85.8355 82.9983 85.3832 83.1765C84.9343 83.3513 84.4221 83.4386 83.8464 83.4386ZM92.6957 75.3847V76.6182H88.2345V75.3847H92.6957ZM89.4577 83.2793V74.4698C89.4577 73.9764 89.5656 73.5669 89.7815 73.2414C89.9974 72.9124 90.2835 72.6675 90.6398 72.5064C90.9962 72.3419 91.3834 72.2597 91.8014 72.2597C92.1098 72.2597 92.3737 72.2854 92.593 72.3368C92.8122 72.3848 92.975 72.4293 93.0812 72.4704L92.7214 73.7142C92.6495 73.6937 92.557 73.6697 92.4439 73.6423C92.3308 73.6115 92.1938 73.596 92.0327 73.596C91.6592 73.596 91.392 73.6885 91.2309 73.8736C91.0733 74.0586 90.9945 74.3259 90.9945 74.6754V83.2793H89.4577ZM97.3729 83.4386C96.5951 83.4386 95.9252 83.2724 95.3633 82.9401C94.8047 82.6043 94.373 82.1331 94.0681 81.5266C93.7665 80.9167 93.6158 80.2023 93.6158 79.3834C93.6158 78.5747 93.7665 77.862 94.0681 77.2452C94.373 76.6285 94.7979 76.1471 95.3427 75.801C95.8909 75.4549 96.5317 75.2819 97.265 75.2819C97.7104 75.2819 98.1421 75.3555 98.5602 75.5029C98.9782 75.6502 99.3534 75.8815 99.6858 76.1967C100.018 76.512 100.28 76.9214 100.472 77.4251C100.664 77.9254 100.76 78.5336 100.76 79.2497V79.7946H94.4844V78.6433H99.254C99.254 78.2389 99.1718 77.8809 99.0073 77.569C98.8429 77.2538 98.6116 77.0054 98.3135 76.8238C98.0188 76.6422 97.6727 76.5514 97.2752 76.5514C96.8435 76.5514 96.4666 76.6576 96.1445 76.87C95.8258 77.0791 95.5791 77.3532 95.4044 77.6924C95.2331 78.0282 95.1474 78.3931 95.1474 78.7872V79.6866C95.1474 80.2143 95.2399 80.6632 95.4249 81.0332C95.6134 81.4033 95.8755 81.686 96.2113 81.8813C96.5471 82.0732 96.9395 82.1691 97.3883 82.1691C97.6796 82.1691 97.9451 82.128 98.185 82.0458C98.4248 81.9601 98.6321 81.8333 98.8069 81.6654C98.9816 81.4975 99.1153 81.2902 99.2078 81.0435L100.662 81.3056C100.546 81.7339 100.337 82.1092 100.035 82.4312C99.7372 82.7499 99.362 82.9983 98.9097 83.1765C98.4608 83.3513 97.9486 83.4386 97.3729 83.4386ZM102.465 83.2793V75.3847H103.95V76.6388H104.033C104.177 76.2139 104.43 75.8798 104.793 75.6365C105.16 75.3898 105.575 75.2664 106.037 75.2664C106.133 75.2664 106.246 75.2699 106.376 75.2767C106.51 75.2836 106.615 75.2921 106.69 75.3024V76.7724C106.628 76.7553 106.519 76.7364 106.361 76.7159C106.203 76.6919 106.046 76.6799 105.888 76.6799C105.525 76.6799 105.201 76.757 104.917 76.9112C104.636 77.0619 104.413 77.2727 104.249 77.5434C104.084 77.8106 104.002 78.1156 104.002 78.4582V83.2793H102.465ZM108.02 83.2793V75.3847H109.505V76.6388H109.587C109.731 76.2139 109.985 75.8798 110.348 75.6365C110.715 75.3898 111.129 75.2664 111.592 75.2664C111.688 75.2664 111.801 75.2699 111.931 75.2767C112.065 75.2836 112.169 75.2921 112.245 75.3024V76.7724C112.183 76.7553 112.073 76.7364 111.916 76.7159C111.758 76.6919 111.601 76.6799 111.443 76.6799C111.08 76.6799 110.756 76.757 110.472 76.9112C110.191 77.0619 109.968 77.2727 109.803 77.5434C109.639 77.8106 109.557 78.1156 109.557 78.4582V83.2793H108.02ZM115.801 83.454C115.301 83.454 114.849 83.3615 114.445 83.1765C114.04 82.988 113.72 82.7156 113.483 82.3593C113.25 82.0029 113.134 81.5661 113.134 81.0487C113.134 80.6032 113.22 80.2366 113.391 79.9487C113.562 79.6609 113.794 79.4331 114.085 79.2652C114.376 79.0973 114.702 78.9705 115.061 78.8848C115.421 78.7992 115.788 78.7341 116.161 78.6895C116.634 78.6347 117.018 78.5901 117.313 78.5559C117.607 78.5182 117.821 78.4582 117.955 78.376C118.089 78.2938 118.155 78.1601 118.155 77.9751V77.9391C118.155 77.4902 118.029 77.1425 117.775 76.8957C117.525 76.649 117.151 76.5257 116.655 76.5257C116.137 76.5257 115.729 76.6405 115.431 76.87C115.137 77.0962 114.933 77.348 114.82 77.6256L113.375 77.2966C113.547 76.8169 113.797 76.4297 114.126 76.1351C114.458 75.837 114.84 75.6211 115.272 75.4875C115.704 75.3504 116.158 75.2819 116.634 75.2819C116.949 75.2819 117.283 75.3196 117.636 75.3949C117.993 75.4669 118.325 75.6005 118.633 75.7958C118.945 75.9911 119.201 76.2704 119.399 76.6336C119.598 76.9934 119.697 77.4611 119.697 78.0368V83.2793H118.197V82.2H118.135C118.036 82.3987 117.886 82.594 117.688 82.7859C117.489 82.9778 117.234 83.1371 116.922 83.2639C116.61 83.3907 116.237 83.454 115.801 83.454ZM116.136 82.2205C116.56 82.2205 116.924 82.1366 117.225 81.9687C117.53 81.8008 117.761 81.5815 117.919 81.3108C118.08 81.0367 118.161 80.7437 118.161 80.4319V79.4142C118.106 79.469 118 79.5204 117.842 79.5684C117.688 79.613 117.511 79.6524 117.313 79.6866C117.114 79.7175 116.92 79.7466 116.732 79.774C116.543 79.798 116.386 79.8185 116.259 79.8357C115.961 79.8734 115.688 79.9368 115.442 80.0258C115.198 80.1149 115.003 80.2434 114.856 80.4113C114.712 80.5758 114.64 80.7951 114.64 81.0692C114.64 81.4496 114.78 81.7374 115.061 81.9327C115.342 82.1246 115.7 82.2205 116.136 82.2205ZM123.281 72.7531V83.2793H121.744V72.7531H123.281Z" fill="black"/>
</svg>
